<svg xmlns="http://www.w3.org/2000/svg" width="79.189" height="71.871" viewBox="0 0 79.189 71.871">
  <path id="ampersand" d="M245.738,69.758a25.3,25.3,0,0,1-11.13-8.524,23.322,23.322,0,0,1-4.249-14.241,19.375,19.375,0,0,1,4.174-12.42,17.959,17.959,0,0,1,11.762-6.5v-.3a13.558,13.558,0,0,1-6.1-11.13A12.647,12.647,0,0,1,244.8,6.52a19.4,19.4,0,0,1,12.648-3.845,17.707,17.707,0,0,1,9.739,2.53,8.3,8.3,0,0,1,3.946,7.462,8.17,8.17,0,0,1-1.8,5.287,5.768,5.768,0,0,1-4.756,2.226,5.059,5.059,0,0,1-3.137-.961c-.86-.658-1.29-1.189-1.29-1.644a4.4,4.4,0,0,1,.936-.936,9.006,9.006,0,0,0,1.594-1.872,4.629,4.629,0,0,0,.708-2.53,5.565,5.565,0,0,0-1.973-4.477,7.285,7.285,0,0,0-5.059-1.695,9.309,9.309,0,0,0-7.184,2.782,9.941,9.941,0,0,0-2.529,6.956,10.75,10.75,0,0,0,5.868,10.118H255.7a4.553,4.553,0,0,1,2.049.329c.354.228.582.885.633,2a2.657,2.657,0,0,1-.481,1.619,1.543,1.543,0,0,1-1.341.683H253.2a12.647,12.647,0,0,0-9.485,4.907,16.163,16.163,0,0,0-3.238,10.118,19.833,19.833,0,0,0,2.884,10.776,19.023,19.023,0,0,0,8.044,7.133,26.459,26.459,0,0,0,11.712,2.53,28.28,28.28,0,0,0,12.9-2.934,23.651,23.651,0,0,0,9.334-8.094,20.236,20.236,0,0,0,3.465-11.61,15.685,15.685,0,0,0-3.086-9.713,10.118,10.118,0,0,0-8.373-4.376,10.472,10.472,0,0,0-5.439,1.594,5.059,5.059,0,0,0-2.529,4.477,4.25,4.25,0,0,0,.809,2.656,3.718,3.718,0,0,0,2.53,1.391,5.186,5.186,0,0,0,4.047-.961,17.849,17.849,0,0,1,1.72-1.341q.481,0,1.214,1.29a5.286,5.286,0,0,1,.734,2.757,5.515,5.515,0,0,1-1.973,4.5,7.361,7.361,0,0,1-4.882,1.644,6.956,6.956,0,0,1-6.046-2.833,12.269,12.269,0,0,1-2.226-7.589,14.419,14.419,0,0,1,3.668-10.6,18.921,18.921,0,0,1,8.676-5.059,101.536,101.536,0,0,1,13-2.251,52.894,52.894,0,0,0,10.3-1.745,9.588,9.588,0,0,0,3.516-2.15,4.326,4.326,0,0,0,1.391-3.137c0-1.922-1.189-3.061-3.567-3.364a5.059,5.059,0,0,0-4.022.961c-1.037.835-1.619,1.265-1.745,1.341s-.835-.582-1.34-1.543a4.882,4.882,0,0,1-.481-3.263,5.59,5.59,0,0,1,2.3-4.047A7.589,7.589,0,0,1,301.539.7a8.3,8.3,0,0,1,3.566.759,6.6,6.6,0,0,1,3.364,3.364,12.168,12.168,0,0,1,1.062,5.059,13.685,13.685,0,0,1-3.314,9.106,21.146,21.146,0,0,1-8.9,5.97,35.11,35.11,0,0,1-12.344,2.074,20.919,20.919,0,0,1,8.3,16.265A27.572,27.572,0,0,1,277.281,69a37.792,37.792,0,0,1-16.568,3.567,39.157,39.157,0,0,1-14.975-2.808Z" transform="translate(-230.345 -0.698)" fill="#1d1d1d"/>
</svg>
