<svg xmlns="http://www.w3.org/2000/svg" width="473.41" height="33.68" viewBox="0 0 473.41 33.68">
  <g id="logo-horizontal" transform="translate(0 0.02)">
    <g id="Layer_1" data-name="Layer 1">
      <path id="Path_478" data-name="Path 478" d="M236.43,28a10,10,0,0,1-4.4-3.37A9.22,9.22,0,0,1,230.35,19,7.66,7.66,0,0,1,232,14.09a7.1,7.1,0,0,1,4.65-2.57V11.4A5.36,5.36,0,0,1,234.24,7a5,5,0,0,1,1.82-4,7.67,7.67,0,0,1,5-1.52,7,7,0,0,1,3.85,1,3.28,3.28,0,0,1,1.56,2.95,3.23,3.23,0,0,1-.71,2.09,2.28,2.28,0,0,1-1.88.88,2,2,0,0,1-1.24-.38c-.34-.26-.51-.47-.51-.65A1.74,1.74,0,0,1,242.5,7a3.561,3.561,0,0,0,.63-.74,1.83,1.83,0,0,0,.28-1,2.2,2.2,0,0,0-.78-1.77,2.88,2.88,0,0,0-2-.67,3.68,3.68,0,0,0-2.84,1.1,3.93,3.93,0,0,0-1,2.75,4.25,4.25,0,0,0,2.32,4h1.26a1.8,1.8,0,0,1,.81.13c.14.09.23.35.25.79a1.05,1.05,0,0,1-.19.64.61.61,0,0,1-.53.27h-1.33a5,5,0,0,0-3.75,1.94,6.39,6.39,0,0,0-1.28,4,7.84,7.84,0,0,0,1.14,4.26,7.52,7.52,0,0,0,3.18,2.82,10.46,10.46,0,0,0,4.63,1,11.18,11.18,0,0,0,5.1-1.16,9.35,9.35,0,0,0,3.69-3.2,8,8,0,0,0,1.37-4.59,6.2,6.2,0,0,0-1.22-3.84A4,4,0,0,0,248.93,12a4.14,4.14,0,0,0-2.15.63,2,2,0,0,0-1,1.77,1.68,1.68,0,0,0,.32,1.05,1.47,1.47,0,0,0,1,.55,2.05,2.05,0,0,0,1.6-.38,7.06,7.06,0,0,1,.68-.53q.19,0,.48.51a2.09,2.09,0,0,1,.29,1.09,2.18,2.18,0,0,1-.78,1.78,2.91,2.91,0,0,1-1.93.65A2.75,2.75,0,0,1,245.05,18a4.85,4.85,0,0,1-.88-3,5.7,5.7,0,0,1,1.45-4.19,7.48,7.48,0,0,1,3.43-2,40.141,40.141,0,0,1,5.14-.89,20.911,20.911,0,0,0,4.07-.69,3.79,3.79,0,0,0,1.39-.85,1.71,1.71,0,0,0,.55-1.24c0-.76-.47-1.21-1.41-1.33a2,2,0,0,0-1.59.38c-.41.33-.64.5-.69.53s-.33-.23-.53-.61a1.93,1.93,0,0,1-.19-1.29,2.21,2.21,0,0,1,.91-1.6A3,3,0,0,1,258.49.7a3.28,3.28,0,0,1,1.41.3,2.61,2.61,0,0,1,1.33,1.33,4.81,4.81,0,0,1,.42,2,5.41,5.41,0,0,1-1.31,3.6,8.36,8.36,0,0,1-3.52,2.36,13.88,13.88,0,0,1-4.88.82,8.27,8.27,0,0,1,3.28,6.43A10.9,10.9,0,0,1,248.9,27.7a14.94,14.94,0,0,1-6.55,1.41A15.48,15.48,0,0,1,236.43,28Z" fill="#2c2c2c"/>
      <path id="Path_479" data-name="Path 479" d="M24.21,28H17.74V16.31H6.47V28H0V.3H6.47V11.9H17.74V.3h6.47Z" fill="#2c2c2c"/>
      <path id="Path_480" data-name="Path 480" d="M57.45,28h-5a2.35,2.35,0,0,1-1.39-.39,2,2,0,0,1-.75-1L48.7,21.82H38.15l-1.64,4.83a2,2,0,0,1-.74,1,2.12,2.12,0,0,1-1.35.43h-5L40.13.3h6.59ZM39.63,17.44h7.58l-2.55-7.6c-.16-.48-.36-1.05-.58-1.7S43.64,6.78,43.42,6c-.2.77-.41,1.49-.63,2.15s-.41,1.23-.6,1.71Z" fill="#2c2c2c"/>
      <path id="Path_481" data-name="Path 481" d="M69,17.78V28H62.56V.3h9a18.66,18.66,0,0,1,5.13.62,9.68,9.68,0,0,1,3.46,1.73,6.37,6.37,0,0,1,2,2.6,8.62,8.62,0,0,1,.61,3.28,8.83,8.83,0,0,1-.36,2.55,7.86,7.86,0,0,1-1.1,2.22,8.6,8.6,0,0,1-1.75,1.82,9.47,9.47,0,0,1-2.39,1.31,6.34,6.34,0,0,1,1.21.8,4.86,4.86,0,0,1,1,1.16L85.25,28H79.42a2.45,2.45,0,0,1-2.32-1.22l-4.61-8a2,2,0,0,0-.71-.76,2.44,2.44,0,0,0-1.15-.23Zm0-4.43h2.59A6.72,6.72,0,0,0,73.82,13a4.14,4.14,0,0,0,1.51-.92,3.54,3.54,0,0,0,.86-1.38A5.57,5.57,0,0,0,76.45,9a3.54,3.54,0,0,0-1.19-2.85,5.5,5.5,0,0,0-3.68-1H69Z" fill="#2c2c2c"/>
      <path id="Path_482" data-name="Path 482" d="M97.16,17.78V28H90.73V.3h9a18.55,18.55,0,0,1,5.13.62,9.73,9.73,0,0,1,3.47,1.73,6.55,6.55,0,0,1,2,2.6,8.62,8.62,0,0,1,.61,3.28,8.83,8.83,0,0,1-.36,2.55,7.62,7.62,0,0,1-1.08,2.22,8.36,8.36,0,0,1-1.75,1.82,9.3,9.3,0,0,1-2.39,1.31,6,6,0,0,1,1.21.8,4.86,4.86,0,0,1,1,1.16l5.9,9.65H107.6a2.47,2.47,0,0,1-2.33-1.22l-4.6-8A2,2,0,0,0,100,18a2.39,2.39,0,0,0-1.15-.23Zm0-4.43h2.59A6.68,6.68,0,0,0,102,13a4.06,4.06,0,0,0,1.51-.92,3.43,3.43,0,0,0,.86-1.38,5.28,5.28,0,0,0,.26-1.7,3.58,3.58,0,0,0-1.19-2.85,5.53,5.53,0,0,0-3.69-1H97.16Z" fill="#2c2c2c"/>
      <path id="Path_483" data-name="Path 483" d="M126,28h-6.48V.3H126Z" fill="#2c2c2c"/>
      <path id="Path_484" data-name="Path 484" d="M149.4,5.94a2.41,2.41,0,0,1-.6.68,1.3,1.3,0,0,1-.81.23,2,2,0,0,1-.94-.27L145.91,6a9,9,0,0,0-1.46-.62,5.93,5.93,0,0,0-1.87-.28,4,4,0,0,0-2.69.77A2.63,2.63,0,0,0,139,7.92a1.9,1.9,0,0,0,.53,1.39,4.53,4.53,0,0,0,1.4.95,13.58,13.58,0,0,0,2,.73c.74.23,1.5.47,2.27.75a19,19,0,0,1,2.28,1,7.75,7.75,0,0,1,2,1.41,6.73,6.73,0,0,1,1.4,2.08,7.53,7.53,0,0,1,.53,3,9.56,9.56,0,0,1-.67,3.6,8.23,8.23,0,0,1-1.93,2.92,8.83,8.83,0,0,1-3.12,2,11.6,11.6,0,0,1-4.22.72,13.27,13.27,0,0,1-2.63-.27,16.181,16.181,0,0,1-2.6-.75,15.649,15.649,0,0,1-2.36-1.15,10.18,10.18,0,0,1-1.93-1.49l1.91-3a1.5,1.5,0,0,1,.59-.55,1.64,1.64,0,0,1,.82-.21,2.18,2.18,0,0,1,1.15.36l1.31.8a9.85,9.85,0,0,0,1.69.8,6.3,6.3,0,0,0,2.24.36,4.22,4.22,0,0,0,2.72-.77,2.92,2.92,0,0,0,1-2.44,2.28,2.28,0,0,0-.54-1.58,3.92,3.92,0,0,0-1.4-1,12.8,12.8,0,0,0-2-.71c-.73-.2-1.49-.42-2.26-.67a15.86,15.86,0,0,1-2.27-.92,7.22,7.22,0,0,1-2-1.42,6.74,6.74,0,0,1-1.4-2.21A8.88,8.88,0,0,1,133,8.24a7.7,7.7,0,0,1,.63-3,7.85,7.85,0,0,1,1.85-2.65,9.21,9.21,0,0,1,3-1.86A11.15,11.15,0,0,1,142.51,0,15.47,15.47,0,0,1,145,.2a12.91,12.91,0,0,1,2.3.59,12.449,12.449,0,0,1,2,.93A9.28,9.28,0,0,1,151,3Z" fill="#2c2c2c"/>
      <path id="Path_485" data-name="Path 485" d="M184.81,14.16a15,15,0,0,1-1,5.6,13.23,13.23,0,0,1-7.46,7.5,16.51,16.51,0,0,1-11.8,0,13.32,13.32,0,0,1-7.49-7.5,15,15,0,0,1-1-5.6,14.9,14.9,0,0,1,1-5.59A13.35,13.35,0,0,1,160,4.07a13.62,13.62,0,0,1,4.55-3,16.51,16.51,0,0,1,11.8,0,13.62,13.62,0,0,1,4.54,3,13.45,13.45,0,0,1,2.92,4.5,14.84,14.84,0,0,1,1,5.59Zm-6.59,0a12.15,12.15,0,0,0-.53-3.7,8,8,0,0,0-1.53-2.79,6.75,6.75,0,0,0-2.45-1.75,8.32,8.32,0,0,0-3.29-.61,8.52,8.52,0,0,0-3.33.61,6.67,6.67,0,0,0-2.45,1.75,7.67,7.67,0,0,0-1.53,2.79,11.84,11.84,0,0,0-.54,3.7,12,12,0,0,0,.54,3.73,7.711,7.711,0,0,0,1.53,2.78,6.44,6.44,0,0,0,2.45,1.75,8.71,8.71,0,0,0,3.33.6,8.5,8.5,0,0,0,3.29-.6,6.52,6.52,0,0,0,2.45-1.75,8,8,0,0,0,1.53-2.78,12.26,12.26,0,0,0,.53-3.73Z" fill="#2c2c2c"/>
      <path id="Path_486" data-name="Path 486" d="M194.84.34a1.9,1.9,0,0,1,.51.15,1.53,1.53,0,0,1,.44.29,6.312,6.312,0,0,1,.48.51L209.44,18c-.05-.53-.09-1.05-.11-1.55s0-1,0-1.42V.3H215V28h-3.35a2.94,2.94,0,0,1-1.25-.23,2.59,2.59,0,0,1-1-.83L196.29,10.45c0,.48.07,1,.09,1.42s0,.9,0,1.3V28h-5.67V.3h3.39a6.47,6.47,0,0,1,.74.04Z" fill="#2c2c2c"/>
      <path id="Path_487" data-name="Path 487" d="M297.62,28h-6.47V16.31H279.88V28H273.4V.3h6.48V11.9h11.27V.3h6.47Z" fill="#2c2c2c"/>
      <path id="Path_488" data-name="Path 488" d="M330.86,28h-5a2.3,2.3,0,0,1-1.38-.39,2,2,0,0,1-.75-1l-1.64-4.83H311.55l-1.63,4.83a2.11,2.11,0,0,1-.75,1,2.08,2.08,0,0,1-1.35.43h-5L313.53.3h6.59ZM313,17.44h7.58l-2.55-7.6c-.17-.48-.36-1.05-.59-1.7A17.678,17.678,0,0,1,316.83,6c-.21.77-.41,1.49-.63,2.15s-.42,1.23-.61,1.71Z" fill="#2c2c2c"/>
      <path id="Path_489" data-name="Path 489" d="M342.39,17.78V28H336V.3h9a18.55,18.55,0,0,1,5.13.62,9.73,9.73,0,0,1,3.47,1.73,6.55,6.55,0,0,1,1.95,2.6,8.621,8.621,0,0,1,.61,3.28,8.83,8.83,0,0,1-.36,2.55,7.619,7.619,0,0,1-1.08,2.22A8.36,8.36,0,0,1,353,15.12a9.3,9.3,0,0,1-2.39,1.31,6,6,0,0,1,1.21.8,4.861,4.861,0,0,1,1,1.16l5.9,9.65H352.9a2.47,2.47,0,0,1-2.33-1.22l-4.6-8a2,2,0,0,0-.72-.76,2.39,2.39,0,0,0-1.15-.23Zm0-4.43H345a6.68,6.68,0,0,0,2.24-.34,4.06,4.06,0,0,0,1.51-.92,3.43,3.43,0,0,0,.86-1.38A5.28,5.28,0,0,0,349.86,9a3.58,3.58,0,0,0-1.19-2.85,5.53,5.53,0,0,0-3.69-1h-2.59Z" fill="#2c2c2c"/>
      <path id="Path_490" data-name="Path 490" d="M383.13.3V5.41h-7.8V28h-6.44V5.41h-7.8V.3Z" fill="#2c2c2c"/>
      <path id="Path_491" data-name="Path 491" d="M384.24,24.69a2.77,2.77,0,0,1,.88-2.05,3.21,3.21,0,0,1,1-.61,3.38,3.38,0,0,1,1.3-.23,3.6,3.6,0,0,1,1.49.29,3.12,3.12,0,0,1,1.05.8,3.31,3.31,0,0,1,.61,1.16,4.522,4.522,0,0,1,.2,1.38,7.56,7.56,0,0,1-.3,2,9.92,9.92,0,0,1-.9,2.16,12.539,12.539,0,0,1-1.5,2.13A12.052,12.052,0,0,1,386,33.66l-1-.92a2,2,0,0,1-.32-.39.87.87,0,0,1-.1-.44.76.76,0,0,1,.13-.41,1.55,1.55,0,0,1,.33-.39l.53-.56A7.56,7.56,0,0,0,386.74,29a4.59,4.59,0,0,0,.39-1,3.33,3.33,0,0,1-1.2-.33,2.7,2.7,0,0,1-.9-.7,3.12,3.12,0,0,1-.58-1,3.49,3.49,0,0,1-.21-1.28Z" fill="#2c2c2c"/>
      <path id="Path_492" data-name="Path 492" d="M413.71,22.9H424V28H407.27V.3h6.44Z" fill="#2c2c2c"/>
      <path id="Path_493" data-name="Path 493" d="M436.32,22.9H446.6V28H429.89V.3h6.43Z" fill="#2c2c2c"/>
      <path id="Path_494" data-name="Path 494" d="M469.62,20.86a1.2,1.2,0,0,1,.45.09,1.23,1.23,0,0,1,.44.3l2.55,2.68a10.53,10.53,0,0,1-4.2,3.3,14.54,14.54,0,0,1-6,1.12,14.19,14.19,0,0,1-5.67-1.08,12.29,12.29,0,0,1-4.24-3,13.06,13.06,0,0,1-2.68-4.49,16.66,16.66,0,0,1-.93-5.65,14.91,14.91,0,0,1,1.07-5.7,13.389,13.389,0,0,1,3-4.48A13.531,13.531,0,0,1,458,1.05a16,16,0,0,1,5.89-1,14.53,14.53,0,0,1,2.94.28,13.591,13.591,0,0,1,2.58.76,12.18,12.18,0,0,1,2.21,1.16,11.42,11.42,0,0,1,1.79,1.49l-2.17,2.92a3.248,3.248,0,0,1-.5.48,1.27,1.27,0,0,1-.8.22,1.47,1.47,0,0,1-.65-.15,7.39,7.39,0,0,1-.64-.37l-.76-.48a5.839,5.839,0,0,0-1-.48,9.592,9.592,0,0,0-1.31-.37,9.1,9.1,0,0,0-1.76-.15,8.08,8.08,0,0,0-3.2.62,6.879,6.879,0,0,0-2.48,1.77,8,8,0,0,0-1.62,2.79,10.87,10.87,0,0,0-.58,3.67,11.352,11.352,0,0,0,.58,3.79,8,8,0,0,0,1.58,2.79,6.521,6.521,0,0,0,2.33,1.72,6.88,6.88,0,0,0,2.86.59,13.27,13.27,0,0,0,1.6-.08,6.911,6.911,0,0,0,1.34-.3,6.6,6.6,0,0,0,1.18-.54,7.92,7.92,0,0,0,1.13-.83,2.528,2.528,0,0,1,.49-.31,1.39,1.39,0,0,1,.59-.18Z" fill="#2c2c2c"/>
    </g>
  </g>
</svg>
