<svg id="Layer_1" data-name="Layer 1" xmlns="http://www.w3.org/2000/svg" viewBox="0 0 198 198"><g id="footer-avvo-social-icon"><path id="Path_894" data-name="Path 894" d="M116,85.59q-.47-5.66-1-11.3a3.91,3.91,0,0,0-.41-1,3.66,3.66,0,0,0-1,.47c-1.49,1.34-3,2.68-4.42,4.1a167.06,167.06,0,0,0-19.95,24.89,5.86,5.86,0,0,0-.32.67h28.46v-.86Q116.73,94.08,116,85.59Z" transform="translate(-0.91 -1.12)"/><path id="Path_895" data-name="Path 895" d="M99.91,1.12a99,99,0,1,0,99,99A99,99,0,0,0,99.91,1.12Zm20.49,141-.6-7.68c-.27-3.63-.56-7.27-.81-10.9,0-.55-.25-.75-.77-.71H77.9A1.43,1.43,0,0,0,76.29,124c-2.3,5.87-4.7,11.71-7.08,17.54a1.32,1.32,0,0,1-.95.67c-8.73,0-17.51,0-26.27,0a5.16,5.16,0,0,1-.67-.1c.57-1.49,1.09-2.9,1.65-4.31A207.52,207.52,0,0,1,62,102,213.27,213.27,0,0,1,86.47,70.72a116.17,116.17,0,0,1,26.29-21.33,48.52,48.52,0,0,1,16.37-6.14,27.92,27.92,0,0,1,5.48-.31,4.58,4.58,0,0,1,4.7,4.47v.23c.67,7.57,1.28,15.15,1.94,22.72.8,9.19,1.63,18.39,2.43,27.58.73,8.41,1.43,16.78,2.15,25.21q.78,9,1.59,17.94v1Z" transform="translate(-0.91 -1.12)"/></g></svg>