<svg id="Layer_1" data-name="Layer 1" xmlns="http://www.w3.org/2000/svg" viewBox="0 0 198.47 49.5"><g style="fill:#425277" id="homepage-erb-wordmark-graphic"><path id="Path_651" data-name="Path 651" d="M119.8,110.37c-.9-.86-1.83-1.67-2.81-2.44a16.6,16.6,0,0,0,5.43-2A15,15,0,0,0,129,97.72a16.69,16.69,0,0,0,.89-5.48c0-.56,0-1.09-.07-1.64H113.58a5.41,5.41,0,0,1,.59,2.59,4.55,4.55,0,0,1-2.44,4.07,11.32,11.32,0,0,1-6,1.48h-43v25.32H78V111h23.53l11,13.1h20.49l-9.1-9.62q-2.58-2.58-4.14-4.07" transform="translate(-0.67 -74.56)"/><path id="Path_652" data-name="Path 652" d="M107.43,87.51h21.92a12.47,12.47,0,0,0-1.83-4,17.65,17.65,0,0,0-6.09-5.4,26.63,26.63,0,0,0-8.22-2.78,52.08,52.08,0,0,0-8.73-.77H72.67l-10,12.87h43.05c.6,0,1.16,0,1.69.08" transform="translate(-0.67 -74.56)"/><path id="Path_653" data-name="Path 653" d="M180.31,87.51h17.77a11.61,11.61,0,0,0-5.27-9.5,18.31,18.31,0,0,0-6.14-2.59,34.46,34.46,0,0,0-8-.85H145.87L135.51,87.44h43.8a8.26,8.26,0,0,1,1,.08" transform="translate(-0.67 -74.56)"/><path id="Path_654" data-name="Path 654" d="M191.37,98.61a10.31,10.31,0,0,0,2.48-1.3A8.88,8.88,0,0,0,196,95.17a11.61,11.61,0,0,0,1.52-3,10,10,0,0,0,.39-1.55H183.6a2.7,2.7,0,0,1-1.3,2.62,6.11,6.11,0,0,1-3,.71h-43.8v30.11H179a36,36,0,0,0,9.73-1.11,16.68,16.68,0,0,0,6.18-3,10.65,10.65,0,0,0,3.25-4.55,16.48,16.48,0,0,0,1-5.74,11.27,11.27,0,0,0-2.25-7.25,11,11,0,0,0-5.51-3.77m-8.66,11.84a5.82,5.82,0,0,1-3.63.89H150.9v-6.81h28.18a6,6,0,0,1,3.63.85,2.93,2.93,0,0,1,1.11,2.47,3.1,3.1,0,0,1-1.11,2.58" transform="translate(-0.67 -74.56)"/><path id="Path_655" data-name="Path 655" d="M16.05,87.51v-.07h32L58,74.57H.67V87.51Z" transform="translate(-0.67 -74.56)"/><path id="Path_656" data-name="Path 656" d="M16.05,104.6H46.46l8.8-11.24H16.05V90.62H.67v33.44H48.31l9.84-12.72H16.05Z" transform="translate(-0.67 -74.56)"/></g></svg>