<svg id="Layer_1" data-name="Layer 1" xmlns="http://www.w3.org/2000/svg" viewBox="0 0 198 198"><path id="footer-linkedin-social-icon" d="M100.17,1a99,99,0,1,0,99,99h0A99,99,0,0,0,100.17,1ZM77.59,141.35H56.81V78.77H77.59ZM67.19,70.29H67.1a10.83,10.83,0,0,1-1.38-21.61,11.78,11.78,0,0,1,1.68,0,10.83,10.83,0,1,1,1.65,21.6,10.38,10.38,0,0,1-1.85,0Zm85.47,71.06H131.88V107.88c0-8.41-3-14.15-10.49-14.15a11.39,11.39,0,0,0-10.73,7.62,13.11,13.11,0,0,0-.67,5.05v34.94H89.21s.29-56.73,0-62.57H110v8.91a20.63,20.63,0,0,1,18.7-10.3c13.66,0,23.95,8.91,23.95,28.21Z" transform="translate(-1.17 -0.96)"/></svg>