<svg xmlns="http://www.w3.org/2000/svg" width="409.857" height="123.356" viewBox="0 0 409.857 123.356">
  <g id="Layer_2" data-name="Layer 2" transform="translate(0.006 -2.999)">
    <g style="fill:#FFF;" id="Layer_1" data-name="Layer 1" transform="translate(-0.005 2.999)">
      <path id="Path_495" data-name="Path 495" d="M10.313,92.519A17.187,17.187,0,0,1,2.84,86.761,15.812,15.812,0,0,1,0,77.183a12.942,12.942,0,0,1,2.785-8.3,12.126,12.126,0,0,1,7.88-4.365v-.187a9.154,9.154,0,0,1-4.076-7.575A8.492,8.492,0,0,1,9.7,49.958a12.89,12.89,0,0,1,8.492-2.6,11.889,11.889,0,0,1,6.522,1.7,5.622,5.622,0,0,1,2.649,5.01,5.52,5.52,0,0,1-1.189,3.567,3.923,3.923,0,0,1-3.21,1.478,3.4,3.4,0,0,1-2.089-.645c-.594-.425-.883-.8-.883-1.087s.2-.238.594-.594a6.539,6.539,0,0,0,1.053-1.257,3.074,3.074,0,0,0,.493-1.7,3.753,3.753,0,0,0-1.325-3.006,5.1,5.1,0,0,0-3.4-1.138,6.182,6.182,0,0,0-4.823,1.885,6.641,6.641,0,0,0-1.7,4.654,7.269,7.269,0,0,0,3.94,6.793h2.14a2.87,2.87,0,0,1,1.393.221c.238.153.374.594.425,1.325a1.97,1.97,0,0,1-.323,1.1,1.1,1.1,0,0,1-.917.442H15.391A8.492,8.492,0,0,0,9.022,69.4,11.005,11.005,0,0,0,6.865,76.2,13.417,13.417,0,0,0,8.8,83.365a12.772,12.772,0,0,0,5.4,4.789,17.7,17.7,0,0,0,7.846,1.7,19.107,19.107,0,0,0,8.662-1.97,16.185,16.185,0,0,0,6.284-5.435,13.706,13.706,0,0,0,2.327-7.8,10.683,10.683,0,0,0-2.072-6.573,6.692,6.692,0,0,0-5.69-2.768,7.116,7.116,0,0,0-3.651,1.053,3.4,3.4,0,0,0-1.7,3.006,2.87,2.87,0,0,0,.56,1.783,2.4,2.4,0,0,0,1.7.934,3.482,3.482,0,0,0,2.717-.645c.679-.56,1.07-.849,1.155-.9s.493.34.815.866a3.533,3.533,0,0,1,.476,1.851,3.736,3.736,0,0,1-1.325,3.04,4.959,4.959,0,0,1-3.261,1.1,4.653,4.653,0,0,1-3.94-1.987,8.1,8.1,0,0,1-1.495-5.1,9.579,9.579,0,0,1,2.463-7.116,12.347,12.347,0,0,1,5.808-3.4,68.341,68.341,0,0,1,8.73-1.529,34.714,34.714,0,0,0,6.929-1.155A6.471,6.471,0,0,0,49.9,55.664a2.9,2.9,0,0,0,.934-2.106c0-1.291-.8-2.038-2.395-2.259a3.482,3.482,0,0,0-2.717.645,11.987,11.987,0,0,1-1.155.9c-.272,0-.56-.374-.917-1.019a3.567,3.567,0,0,1-.323-2.208A3.8,3.8,0,0,1,44.891,46.9a5.18,5.18,0,0,1,3.04-.9,5.826,5.826,0,0,1,2.378.442,4.5,4.5,0,0,1,2.276,2.276,8.1,8.1,0,0,1,.713,3.4A9.052,9.052,0,0,1,50.955,58.4a13.927,13.927,0,0,1-5.978,4.008A23.489,23.489,0,0,1,36.705,63.8a14.062,14.062,0,0,1,5.554,10.937A18.393,18.393,0,0,1,31.525,91.992a25.323,25.323,0,0,1-11.141,2.395,26.749,26.749,0,0,1-10.071-1.868Z" transform="translate(0.005 20.715)" fill="#2c2c2c"/>
      <path id="Path_496" data-name="Path 496" d="M41.627,47.345H30.639V27.491H11.532V47.345H.51V.3H11.532V20H30.639V.3H41.627Z" transform="translate(0.365 0.212)" fill="#2c2c2c"/>
      <path id="Path_497" data-name="Path 497" d="M77.617,47.345H69.125a3.906,3.906,0,0,1-2.344-.662,3.4,3.4,0,0,1-1.274-1.7l-2.836-8.135h-17.9l-2.819,8.2a3.549,3.549,0,0,1-1.257,1.7,3.6,3.6,0,0,1-2.293.73H29.91L48.133.3H59.309ZM47.284,29.41H60.158L55.827,16.5c-.289-.815-.611-1.783-.985-2.887s-.747-2.31-1.121-3.634c-.34,1.308-.7,2.531-1.07,3.651s-.713,2.089-1.036,2.9Z" transform="translate(20.897 0.212)" fill="#2c2c2c"/>
      <path id="Path_498" data-name="Path 498" d="M74,29.99V47.347H63.06V.3H78.345a31.692,31.692,0,0,1,8.713,1.053,16.441,16.441,0,0,1,5.876,2.938,10.819,10.819,0,0,1,3.312,4.416,14.64,14.64,0,0,1,1.036,5.571,15,15,0,0,1-.611,4.331,12.94,12.94,0,0,1-1.783,3.77,14.2,14.2,0,0,1-2.972,3.091A15.8,15.8,0,0,1,87.856,27.7a10.191,10.191,0,0,1,2.055,1.359,7.881,7.881,0,0,1,1.7,1.97L101.6,47.347H91.711a4.161,4.161,0,0,1-3.94-2.072L79.942,31.688A3.4,3.4,0,0,0,78.736,30.4a4.178,4.178,0,0,0-1.97-.391Zm0-7.524h4.4a11.243,11.243,0,0,0,3.787-.594,6.964,6.964,0,0,0,2.582-1.562,5.979,5.979,0,0,0,1.444-2.344,8.967,8.967,0,0,0,.526-2.887,6.08,6.08,0,0,0-2.021-4.84,9.341,9.341,0,0,0-6.25-1.7H74Z" transform="translate(44.048 0.21)" fill="#2c2c2c"/>
      <path id="Path_499" data-name="Path 499" d="M102.16,29.99V47.347H91.24V.3h15.285a31.5,31.5,0,0,1,8.713,1.053,16.525,16.525,0,0,1,5.893,2.938,11.124,11.124,0,0,1,3.4,4.416,15.387,15.387,0,0,1,.408,9.9,13.347,13.347,0,0,1-1.834,3.77,14.6,14.6,0,0,1-2.972,3.091A15.8,15.8,0,0,1,116.07,27.7a10.767,10.767,0,0,1,2.055,1.359,8.253,8.253,0,0,1,1.7,1.97l10.02,16.389h-9.969a4.161,4.161,0,0,1-3.94-2.072L108.1,31.756a3.4,3.4,0,0,0-1.206-1.291,4.093,4.093,0,0,0-1.953-.391Zm0-7.524h4.4a11.345,11.345,0,0,0,3.8-.594,6.9,6.9,0,0,0,2.565-1.562,6.012,6.012,0,0,0,1.461-2.344,9.46,9.46,0,0,0,.442-2.887,6.012,6.012,0,0,0-2.021-4.84,9.341,9.341,0,0,0-6.25-1.7h-4.4Z" transform="translate(63.727 0.21)" fill="#2c2c2c"/>
      <path id="Path_500" data-name="Path 500" d="M130.971,47.345H120V.3h11.005Z" transform="translate(83.812 0.212)" fill="#2c2c2c"/>
      <path id="Path_501" data-name="Path 501" d="M162.089,10.089a4.092,4.092,0,0,1-1.019,1.155,2.208,2.208,0,0,1-1.376.391,3.4,3.4,0,0,1-1.6-.459l-1.953-.985A15.113,15.113,0,0,0,153.75,9.07a10.19,10.19,0,0,0-3.176-.476A6.793,6.793,0,0,0,146.006,9.9a4.484,4.484,0,0,0-1.512,3.55,3.244,3.244,0,0,0,.917,2.361,7.693,7.693,0,0,0,2.378,1.613,23.067,23.067,0,0,0,3.4,1.24c1.257.391,2.548.8,3.855,1.274a34.689,34.689,0,0,1,3.872,1.7,13.163,13.163,0,0,1,3.4,2.395,11.107,11.107,0,0,1,2.361,3.533,12.484,12.484,0,0,1,.917,5.1,16.237,16.237,0,0,1-1.138,6.114,14.216,14.216,0,0,1-3.278,4.959,15.285,15.285,0,0,1-5.3,3.4,19.752,19.752,0,0,1-7.167,1.223,22.825,22.825,0,0,1-4.484-.459,26.257,26.257,0,0,1-8.492-3.227,17.713,17.713,0,0,1-3.261-2.531l3.227-5.1a2.582,2.582,0,0,1,1.019-.934,2.769,2.769,0,0,1,1.376-.357,3.753,3.753,0,0,1,1.97.611l2.225,1.359a17.152,17.152,0,0,0,2.853,1.359,10.869,10.869,0,0,0,3.821.611,7.167,7.167,0,0,0,4.62-1.308,4.959,4.959,0,0,0,1.7-4.144,3.855,3.855,0,0,0-.9-2.683,6.657,6.657,0,0,0-2.378-1.7,22.418,22.418,0,0,0-3.4-1.206c-1.257-.34-2.531-.713-3.838-1.138a26.937,26.937,0,0,1-3.855-1.562,12.008,12.008,0,0,1-3.4-2.412,11.446,11.446,0,0,1-2.378-3.753,14.742,14.742,0,0,1-.9-5.554,13.077,13.077,0,0,1,1.07-5.1,13.281,13.281,0,0,1,3.159-4.806,15.728,15.728,0,0,1,5.1-3.159A18.869,18.869,0,0,1,150.354,0a26.425,26.425,0,0,1,4.212.34A22.078,22.078,0,0,1,161.9,2.922a15.759,15.759,0,0,1,2.9,2.174Z" transform="translate(92.521 0.002)" fill="#2c2c2c"/>
      <path id="Path_502" data-name="Path 502" d="M205.4,24.05a25.478,25.478,0,0,1-1.7,9.511A22.469,22.469,0,0,1,191.031,46.3a28.04,28.04,0,0,1-20.041,0,22.945,22.945,0,0,1-7.744-5.1,22.638,22.638,0,0,1-4.976-7.643,25.475,25.475,0,0,1-1.7-9.511,25.306,25.306,0,0,1,1.7-9.494,22.64,22.64,0,0,1,4.976-7.643,23.37,23.37,0,0,1,7.745-5.1,28.1,28.1,0,0,1,19.973.034,23.132,23.132,0,0,1,7.711,5.1,22.842,22.842,0,0,1,4.959,7.643A25.2,25.2,0,0,1,205.4,24.05Zm-11.192,0a20.637,20.637,0,0,0-.9-6.284,13.315,13.315,0,0,0-2.616-4.738,11.259,11.259,0,0,0-4.144-2.972,15.778,15.778,0,0,0-11.243,0,11.175,11.175,0,0,0-4.161,2.972,13.313,13.313,0,0,0-2.615,4.738,20.635,20.635,0,0,0-.9,6.284,20.824,20.824,0,0,0,.9,6.335,13.382,13.382,0,0,0,2.615,4.721,10.819,10.819,0,0,0,4.161,2.972,16.016,16.016,0,0,0,11.243,0,10.886,10.886,0,0,0,4.144-2.972,13.383,13.383,0,0,0,2.615-4.721,20.822,20.822,0,0,0,.9-6.335Z" transform="translate(109.35 0.001)" fill="#2c2c2c"/>
      <path id="Path_503" data-name="Path 503" d="M198.241.368a3.226,3.226,0,0,1,.866.255,2.837,2.837,0,0,1,.747.493,10.721,10.721,0,0,1,.815.866l22.452,28.38c0-.9-.153-1.783-.2-2.632s0-1.7,0-2.412V.3h9.63V47.345h-5.69a5.1,5.1,0,0,1-2.14-.391,4.652,4.652,0,0,1-1.7-1.41L200.687,17.538c0,.815.119,1.7.17,2.412s0,1.529,0,2.208V47.345H191.21V.3h5.757a11.346,11.346,0,0,1,1.274.068Z" transform="translate(133.543 0.212)" fill="#2c2c2c"/>
      <path id="Path_504" data-name="Path 504" d="M82.454,93.1H71.449V73.174H52.308V93.1H41.32V46H52.308V65.7H71.449V46H82.454Z" transform="translate(28.865 20.716)" fill="#2c2c2c"/>
      <path id="Path_505" data-name="Path 505" d="M118.345,93.1h-8.492a3.906,3.906,0,0,1-2.344-.662,3.4,3.4,0,0,1-1.291-1.7l-2.768-8.22H85.567l-2.785,8.22a3.4,3.4,0,0,1-1.257,1.7,3.6,3.6,0,0,1-2.293.73H70.74L88.929,46h11.124Zm-30.18-18h12.857L96.657,62.185c-.272-.815-.611-1.783-.985-2.887s-.747-2.31-1.121-3.617c-.34,1.325-.7,2.548-1.053,3.668s-.713,2.089-1.036,2.9Z" transform="translate(49.411 20.716)" fill="#2c2c2c"/>
      <path id="Path_506" data-name="Path 506" d="M114.8,75.673V93.1H103.88V46h15.285a31.5,31.5,0,0,1,8.713,1.053,16.508,16.508,0,0,1,5.893,2.921,11.294,11.294,0,0,1,3.4,4.433,15.387,15.387,0,0,1,.408,9.9,13.349,13.349,0,0,1-1.868,3.77,14.131,14.131,0,0,1-2.972,3.074,16.118,16.118,0,0,1-4.059,2.242,10.02,10.02,0,0,1,2.055,1.359,7.93,7.93,0,0,1,1.7,1.97l10.02,16.389h-9.9a4.2,4.2,0,0,1-3.94-2.072l-7.829-13.672a3.193,3.193,0,0,0-1.206-1.291,4.093,4.093,0,0,0-1.953-.391Zm0-7.541h4.4a11.378,11.378,0,0,0,3.8-.56,6.9,6.9,0,0,0,2.565-1.562,6.267,6.267,0,0,0,1.461-2.344,9.458,9.458,0,0,0,.442-2.9,6,6,0,0,0-2.021-4.84,9.341,9.341,0,0,0-6.25-1.7h-4.4Z" transform="translate(72.555 20.714)" fill="#2c2c2c"/>
      <path id="Path_507" data-name="Path 507" d="M166.449,46v8.662H153.185V93.1h-10.92V54.662H129V46Z" transform="translate(90.098 20.716)" fill="#2c2c2c"/>
      <path id="Path_508" data-name="Path 508" d="M152.15,72.4a4.788,4.788,0,0,1,.391-1.919,4.415,4.415,0,0,1,1.121-1.562,5.6,5.6,0,0,1,1.7-1.053,6.028,6.028,0,0,1,2.208-.374,5.858,5.858,0,0,1,2.531.493,5.1,5.1,0,0,1,1.7,1.359,5.519,5.519,0,0,1,1.053,1.97,7.678,7.678,0,0,1,.34,2.344,12.84,12.84,0,0,1-.509,3.4,16.984,16.984,0,0,1-1.546,3.668,21.865,21.865,0,0,1-2.446,3.668,21.3,21.3,0,0,1-3.5,3.244l-1.7-1.562a3.4,3.4,0,0,1-.543-.662,1.494,1.494,0,0,1-.17-.764,1.274,1.274,0,0,1,.221-.679,3.533,3.533,0,0,1,.543-.679c.272-.255.56-.56.917-.934a15.6,15.6,0,0,0,1.036-1.223,11.887,11.887,0,0,0,.951-1.495,7.184,7.184,0,0,0,.662-1.7,5.094,5.094,0,0,1-2.038-.543,4.891,4.891,0,0,1-1.545-1.189,6.263,6.263,0,0,1-.985-1.7A5.993,5.993,0,0,1,152.15,72.4Z" transform="translate(106.265 35.723)" fill="#2c2c2c"/>
      <path id="Path_509" data-name="Path 509" d="M186.111,84.366H203.57V93.1H175.19V46h10.921Z" transform="translate(122.355 20.716)" fill="#2c2c2c"/>
      <path id="Path_510" data-name="Path 510" d="M208.737,84.366H226.2V93.1H197.8V46h10.937Z" transform="translate(138.145 20.716)" fill="#2c2c2c"/>
      <path id="Path_511" data-name="Path 511" d="M251.659,81.112a2.072,2.072,0,0,1,.781.153,2.191,2.191,0,0,1,.747.492l4.365,4.569a18,18,0,0,1-7.133,5.6,25.017,25.017,0,0,1-10.19,1.885,24.083,24.083,0,0,1-9.6-1.749,20.872,20.872,0,0,1-7.2-5.1,21.925,21.925,0,0,1-4.552-7.626,28.362,28.362,0,0,1-1.579-9.6,25.255,25.255,0,0,1,1.8-9.681,22.316,22.316,0,0,1,12.84-12.585,27.055,27.055,0,0,1,9.986-1.783,26.291,26.291,0,0,1,5.01.459,24.219,24.219,0,0,1,4.365,1.308,20.143,20.143,0,0,1,3.753,1.97,17.949,17.949,0,0,1,3.04,2.531L254.41,56.91a4.826,4.826,0,0,1-.832.832,2.157,2.157,0,0,1-1.359.374,2.446,2.446,0,0,1-1.1-.255c-.34-.17-.713-.391-1.1-.628l-1.274-.815a10.632,10.632,0,0,0-1.7-.815,14.182,14.182,0,0,0-2.225-.628,15.454,15.454,0,0,0-2.989-.255,13.722,13.722,0,0,0-5.435,1.053,11.735,11.735,0,0,0-4.229,3.006,14.149,14.149,0,0,0-2.751,4.738,18.817,18.817,0,0,0-.985,6.233,19.719,19.719,0,0,0,.985,6.437,14.571,14.571,0,0,0,2.666,4.721,11.5,11.5,0,0,0,3.974,2.921,11.651,11.651,0,0,0,4.84,1,26.15,26.15,0,0,0,2.717-.136,11.446,11.446,0,0,0,2.276-.509,10.187,10.187,0,0,0,2-.917,12.666,12.666,0,0,0,1.936-1.41,3.278,3.278,0,0,1,.832-.527,2.038,2.038,0,0,1,1-.221Z" transform="translate(151.762 20.506)" fill="#2c2c2c"/>
    </g>
  </g>
</svg>
